<mxfile host="app.diagrams.net" modified="2022-09-27T11:39:08.378Z" agent="5.0 (Windows NT 10.0; Win64; x64) AppleWebKit/537.36 (KHTML, like Gecko) Chrome/105.0.0.0 Safari/537.36" etag="xo4D8qCvrlImWhvSiNr7" version="20.3.6" type="github">
  <diagram id="uVDqx0vBEXlAcl54HQMA" name="Page-1">
    <mxGraphModel dx="723" dy="375" grid="1" gridSize="10" guides="1" tooltips="1" connect="1" arrows="1" fold="1" page="1" pageScale="1" pageWidth="850" pageHeight="1100" background="none" math="0" shadow="0">
      <root>
        <mxCell id="0" />
        <mxCell id="1" parent="0" />
        <mxCell id="SxHbV8RwM6fXniTLS3kw-11" style="edgeStyle=orthogonalEdgeStyle;rounded=0;orthogonalLoop=1;jettySize=auto;html=1;exitX=0.5;exitY=1;exitDx=0;exitDy=0;entryX=0.5;entryY=0;entryDx=0;entryDy=0;fontFamily=Verdana;fontSize=18;" edge="1" parent="1" source="SxHbV8RwM6fXniTLS3kw-2" target="SxHbV8RwM6fXniTLS3kw-7">
          <mxGeometry relative="1" as="geometry" />
        </mxCell>
        <mxCell id="SxHbV8RwM6fXniTLS3kw-2" value="Application Layer" style="rounded=1;whiteSpace=wrap;html=1;" vertex="1" parent="1">
          <mxGeometry x="80" y="80" width="120" height="60" as="geometry" />
        </mxCell>
        <mxCell id="SxHbV8RwM6fXniTLS3kw-17" style="edgeStyle=orthogonalEdgeStyle;rounded=0;orthogonalLoop=1;jettySize=auto;html=1;exitX=0.5;exitY=1;exitDx=0;exitDy=0;entryX=0.5;entryY=0;entryDx=0;entryDy=0;fontFamily=Verdana;fontSize=18;" edge="1" parent="1" source="SxHbV8RwM6fXniTLS3kw-3" target="SxHbV8RwM6fXniTLS3kw-8">
          <mxGeometry relative="1" as="geometry" />
        </mxCell>
        <mxCell id="SxHbV8RwM6fXniTLS3kw-3" value="Data Link Layer" style="rounded=1;whiteSpace=wrap;html=1;" vertex="1" parent="1">
          <mxGeometry x="80" y="480" width="120" height="60" as="geometry" />
        </mxCell>
        <mxCell id="SxHbV8RwM6fXniTLS3kw-16" style="edgeStyle=orthogonalEdgeStyle;rounded=0;orthogonalLoop=1;jettySize=auto;html=1;exitX=0.5;exitY=1;exitDx=0;exitDy=0;entryX=0.5;entryY=0;entryDx=0;entryDy=0;fontFamily=Verdana;fontSize=18;" edge="1" parent="1" source="SxHbV8RwM6fXniTLS3kw-4" target="SxHbV8RwM6fXniTLS3kw-3">
          <mxGeometry relative="1" as="geometry" />
        </mxCell>
        <mxCell id="SxHbV8RwM6fXniTLS3kw-4" value="Network Layer" style="rounded=1;whiteSpace=wrap;html=1;" vertex="1" parent="1">
          <mxGeometry x="80" y="400" width="120" height="60" as="geometry" />
        </mxCell>
        <mxCell id="SxHbV8RwM6fXniTLS3kw-15" style="edgeStyle=orthogonalEdgeStyle;rounded=0;orthogonalLoop=1;jettySize=auto;html=1;exitX=0.5;exitY=1;exitDx=0;exitDy=0;entryX=0.5;entryY=0;entryDx=0;entryDy=0;fontFamily=Verdana;fontSize=18;" edge="1" parent="1" source="SxHbV8RwM6fXniTLS3kw-5" target="SxHbV8RwM6fXniTLS3kw-4">
          <mxGeometry relative="1" as="geometry" />
        </mxCell>
        <mxCell id="SxHbV8RwM6fXniTLS3kw-5" value="Transport Layer" style="rounded=1;whiteSpace=wrap;html=1;" vertex="1" parent="1">
          <mxGeometry x="80" y="320" width="120" height="60" as="geometry" />
        </mxCell>
        <mxCell id="SxHbV8RwM6fXniTLS3kw-14" style="edgeStyle=orthogonalEdgeStyle;rounded=0;orthogonalLoop=1;jettySize=auto;html=1;exitX=0.5;exitY=1;exitDx=0;exitDy=0;entryX=0.5;entryY=0;entryDx=0;entryDy=0;fontFamily=Verdana;fontSize=18;" edge="1" parent="1" source="SxHbV8RwM6fXniTLS3kw-6" target="SxHbV8RwM6fXniTLS3kw-5">
          <mxGeometry relative="1" as="geometry" />
        </mxCell>
        <mxCell id="SxHbV8RwM6fXniTLS3kw-6" value="Session Layer" style="rounded=1;whiteSpace=wrap;html=1;" vertex="1" parent="1">
          <mxGeometry x="80" y="240" width="120" height="60" as="geometry" />
        </mxCell>
        <mxCell id="SxHbV8RwM6fXniTLS3kw-12" style="edgeStyle=orthogonalEdgeStyle;rounded=0;orthogonalLoop=1;jettySize=auto;html=1;exitX=0.5;exitY=1;exitDx=0;exitDy=0;entryX=0.5;entryY=0;entryDx=0;entryDy=0;fontFamily=Verdana;fontSize=18;" edge="1" parent="1" source="SxHbV8RwM6fXniTLS3kw-7" target="SxHbV8RwM6fXniTLS3kw-6">
          <mxGeometry relative="1" as="geometry" />
        </mxCell>
        <mxCell id="SxHbV8RwM6fXniTLS3kw-7" value="Presentation Layer" style="rounded=1;whiteSpace=wrap;html=1;" vertex="1" parent="1">
          <mxGeometry x="80" y="160" width="120" height="60" as="geometry" />
        </mxCell>
        <mxCell id="SxHbV8RwM6fXniTLS3kw-8" value="Physical Layer" style="rounded=1;whiteSpace=wrap;html=1;" vertex="1" parent="1">
          <mxGeometry x="80" y="560" width="120" height="60" as="geometry" />
        </mxCell>
        <mxCell id="SxHbV8RwM6fXniTLS3kw-10" value="&lt;font face=&quot;Verdana&quot; style=&quot;font-size: 18px;&quot;&gt;&lt;u&gt;Structure of the Network&lt;br&gt;&lt;br&gt;OSI Model&lt;/u&gt;&lt;/font&gt;" style="text;html=1;align=center;verticalAlign=middle;resizable=0;points=[];autosize=1;strokeColor=none;fillColor=none;" vertex="1" parent="1">
          <mxGeometry x="300" width="250" height="80" as="geometry" />
        </mxCell>
        <mxCell id="SxHbV8RwM6fXniTLS3kw-28" style="edgeStyle=orthogonalEdgeStyle;rounded=0;orthogonalLoop=1;jettySize=auto;html=1;exitX=0.5;exitY=0;exitDx=0;exitDy=0;entryX=0;entryY=0.5;entryDx=0;entryDy=0;fontFamily=Times New Roman;fontSize=16;" edge="1" parent="1" source="SxHbV8RwM6fXniTLS3kw-18" target="SxHbV8RwM6fXniTLS3kw-20">
          <mxGeometry relative="1" as="geometry" />
        </mxCell>
        <mxCell id="SxHbV8RwM6fXniTLS3kw-18" value="Comp A" style="whiteSpace=wrap;html=1;fontFamily=Verdana;fontSize=18;" vertex="1" parent="1">
          <mxGeometry x="90" y="850" width="80" height="60" as="geometry" />
        </mxCell>
        <mxCell id="SxHbV8RwM6fXniTLS3kw-19" value="Example" style="text;html=1;align=center;verticalAlign=middle;resizable=0;points=[];autosize=1;strokeColor=none;fillColor=none;fontSize=16;fontFamily=Times New Roman;fontStyle=4" vertex="1" parent="1">
          <mxGeometry x="370" y="720" width="80" height="30" as="geometry" />
        </mxCell>
        <mxCell id="SxHbV8RwM6fXniTLS3kw-27" style="edgeStyle=orthogonalEdgeStyle;rounded=0;orthogonalLoop=1;jettySize=auto;html=1;exitX=1;exitY=0.5;exitDx=0;exitDy=0;entryX=0.16;entryY=0.55;entryDx=0;entryDy=0;entryPerimeter=0;fontFamily=Times New Roman;fontSize=16;" edge="1" parent="1" source="SxHbV8RwM6fXniTLS3kw-20" target="SxHbV8RwM6fXniTLS3kw-21">
          <mxGeometry relative="1" as="geometry" />
        </mxCell>
        <mxCell id="SxHbV8RwM6fXniTLS3kw-20" value="Wifi" style="ellipse;whiteSpace=wrap;html=1;fontFamily=Times New Roman;fontSize=12;" vertex="1" parent="1">
          <mxGeometry x="225" y="790" width="70" height="50" as="geometry" />
        </mxCell>
        <mxCell id="SxHbV8RwM6fXniTLS3kw-29" style="edgeStyle=orthogonalEdgeStyle;rounded=0;orthogonalLoop=1;jettySize=auto;html=1;exitX=0.875;exitY=0.5;exitDx=0;exitDy=0;exitPerimeter=0;entryX=0;entryY=0.5;entryDx=0;entryDy=0;fontFamily=Times New Roman;fontSize=16;" edge="1" parent="1" source="SxHbV8RwM6fXniTLS3kw-21" target="SxHbV8RwM6fXniTLS3kw-24">
          <mxGeometry relative="1" as="geometry" />
        </mxCell>
        <mxCell id="SxHbV8RwM6fXniTLS3kw-21" value="Facebook" style="ellipse;shape=cloud;whiteSpace=wrap;html=1;fontFamily=Times New Roman;fontSize=12;" vertex="1" parent="1">
          <mxGeometry x="360" y="760" width="120" height="80" as="geometry" />
        </mxCell>
        <mxCell id="SxHbV8RwM6fXniTLS3kw-23" value="Comp B" style="whiteSpace=wrap;html=1;fontFamily=Verdana;fontSize=18;" vertex="1" parent="1">
          <mxGeometry x="640" y="850" width="80" height="60" as="geometry" />
        </mxCell>
        <mxCell id="SxHbV8RwM6fXniTLS3kw-25" style="edgeStyle=orthogonalEdgeStyle;rounded=0;orthogonalLoop=1;jettySize=auto;html=1;exitX=1;exitY=0.5;exitDx=0;exitDy=0;entryX=0.5;entryY=0;entryDx=0;entryDy=0;fontFamily=Times New Roman;fontSize=16;" edge="1" parent="1" source="SxHbV8RwM6fXniTLS3kw-24" target="SxHbV8RwM6fXniTLS3kw-23">
          <mxGeometry relative="1" as="geometry" />
        </mxCell>
        <mxCell id="SxHbV8RwM6fXniTLS3kw-24" value="Router" style="ellipse;whiteSpace=wrap;html=1;fontFamily=Times New Roman;fontSize=16;" vertex="1" parent="1">
          <mxGeometry x="560" y="790" width="60" height="50" as="geometry" />
        </mxCell>
        <mxCell id="SxHbV8RwM6fXniTLS3kw-30" value="Packets" style="swimlane;fontFamily=Times New Roman;fontSize=16;" vertex="1" parent="1">
          <mxGeometry x="380" y="880" width="100" height="70" as="geometry" />
        </mxCell>
        <mxCell id="SxHbV8RwM6fXniTLS3kw-31" value="192.168.1.1" style="text;html=1;align=center;verticalAlign=middle;resizable=0;points=[];autosize=1;strokeColor=none;fillColor=none;fontSize=16;fontFamily=Times New Roman;" vertex="1" parent="SxHbV8RwM6fXniTLS3kw-30">
          <mxGeometry x="-5" y="20" width="100" height="30" as="geometry" />
        </mxCell>
      </root>
    </mxGraphModel>
  </diagram>
</mxfile>
